<svg width="157" height="164" viewBox="0 0 157 164" fill="none" xmlns="http://www.w3.org/2000/svg">
<path d="M33.0464 75.6731C34.1134 70.6518 36.6101 67.4983 36.7698 67.303C37.7729 66.0773 39.7055 65.7904 41.0984 66.6678C42.4847 67.5444 42.7517 69.2115 41.8108 70.4749C40.2639 72.5542 38.2405 78.1761 39.1831 83.119C40.1272 88.0611 41.7281 92.0581 50.4761 93.5376C56.028 94.4742 56.5758 98.4774 56.9738 101.399C57.416 104.608 57.9646 108.606 63.2537 112.985C65.3361 114.711 68.004 116.001 70.8274 117.36C72.2293 118.037 73.6926 118.744 75.1396 119.545C77.317 115.201 79.1152 107.763 78.9645 103.322C78.7803 97.82 76.7519 92.5741 73.1055 88.1464L72.3186 87.1898L72.5691 86.028C73.0163 83.9679 73.2013 81.8763 73.1538 79.8055C72.0533 80.1446 70.6301 80.3715 69.2273 80.3592C63.2807 80.3046 58.7065 78.153 55.612 74.6812C50.2697 68.694 51.4972 62.034 51.7494 58.5468C52.0008 55.0611 52.2317 52.2867 52.6805 48.3504C53.374 42.2502 54.2347 34.6552 53.5837 31.9561C51.5766 23.649 47.0172 23.7859 45.3008 23.8367C43.5861 23.8882 42.158 22.7048 42.1072 21.1968C42.0556 19.6858 43.4027 18.4209 45.1158 18.3701C49.3919 18.244 56.9681 19.6858 59.6499 30.795C60.5039 34.3292 59.6646 41.7242 58.8523 48.8748C58.4052 52.8004 58.0293 55.6455 57.9491 58.8129C57.8696 61.981 57.3234 67.812 60.5072 71.3085C62.5069 73.5039 65.4622 74.6935 69.6007 74.8957C71.1009 74.9841 74.3944 73.5923 76.1533 70.7656C77.1949 68.5748 77.7117 66.1987 77.6306 63.7988C77.5118 60.2585 76.1362 56.9005 73.6607 54.0861L72.1442 52.3636L73.718 50.6727C76.634 47.5399 78.1645 43.6044 78.0285 39.5904C77.9147 36.22 76.6643 33.0042 74.414 30.2921L73.0212 28.6158L74.4886 26.9771C77.2727 23.8774 78.7303 20.0057 78.5977 16.0679C78.2709 6.3728 71.1451 -0.191811 61.272 0.101166C54.4541 0.304176 49.346 2.95937 46.4988 9.15028C39.5974 7.43165 31.5242 13.0628 29.7218 18.6585C27.8548 24.4557 28.993 31.3956 36.8067 40.1786C37.9654 41.4813 39.1994 42.6493 40.4801 43.6543C41.7592 44.6548 41.8722 46.3834 40.7299 47.5122C40.1378 48.0997 39.3288 48.4119 38.5083 48.4365C37.7427 48.4588 36.968 48.232 36.3514 47.7498C34.7964 46.5318 33.306 45.1246 31.9205 43.569C26.335 37.2896 24.3394 30.2183 23.6393 25.4354C11.841 33.0089 10.3228 46.9463 15.6971 54.6105C8.80547 64.3509 19.5195 76.2698 33.0464 75.6731Z" fill="white"/>
<path d="M67.8352 122.161C64.685 120.917 61.6528 119.18 58.998 116.98C52.0736 111.248 51.3203 105.728 50.8183 102.075C50.4105 99.098 50.2828 99.0788 49.2862 98.9089C44.2461 98.0592 40.7782 96.5289 38.3609 94.5804C35.3654 95.8107 32.4273 96.3674 29.7144 96.4474C21.7231 96.6858 15.6037 93.1586 15.2565 92.9517C13.8349 92.1143 13.455 90.4165 14.409 89.1592C15.3638 87.905 17.2922 87.5621 18.7031 88.3933C19.0429 88.5902 26.5102 92.8118 34.7128 90.0404C33.9152 88.4456 32.3479 85.1137 32.4535 81.1989C19.4245 81.5334 7.37077 74.3029 6.85079 62.1971C-9.99007 85.4313 10.073 107.201 32.9588 113.358C39.1159 115.017 43.5574 120.809 43.6164 126.845C43.6245 127.9 43.4731 129.484 42.7893 131.259C45.2205 131.687 48.0816 132.466 50.9387 133.703C50.2361 129.563 50.7913 126.097 50.8314 125.868C51.0812 124.374 52.6706 123.344 54.3534 123.552C56.0452 123.766 57.2145 125.151 56.968 126.643C56.9549 126.714 55.5497 135.417 59.6383 139.486C61.81 141.647 63.9784 145.233 64.6032 149.216C64.8382 150.71 63.6533 152.096 61.9557 152.309C61.8427 152.321 61.7297 152.332 61.6192 152.335C60.0568 152.382 58.6786 151.385 58.46 149.983C56.6257 138.317 43.8809 136.698 39.3754 136.273C37.3389 138.217 34.3574 140.07 29.9609 141.448C29.6497 141.548 29.3353 141.596 29.0241 141.605C27.7098 141.645 26.4651 140.941 26.0058 139.79C25.4366 138.369 26.2858 136.804 27.9047 136.296C34.0741 134.36 37.4511 131.027 37.4118 126.911C37.379 123.262 34.5613 119.592 30.996 118.556C18.2478 114.853 8.89223 108.799 3.10528 100.547C-4.3759 118.915 11.8361 126.714 22.2046 125.563C23.8824 125.4 25.4522 126.438 25.6594 127.937C25.8625 129.438 24.6497 130.803 22.9498 130.99C22.1071 131.082 21.285 131.139 20.4817 131.164C16.9098 131.27 13.7408 130.732 11.0106 129.882C8.5696 140.028 19.6243 156.945 39.8193 149.989C42.3479 163.289 63.2291 169.441 75.2673 156.803C87.1106 144.369 78.8924 126.528 67.8352 122.161Z" fill="white"/>
<path d="M82.7551 38.0271C82.7781 38.71 82.8591 39.3866 82.982 40.0541C85.3886 37.0536 88.0614 34.5437 89.8154 33.2119C90.5213 32.6782 91.2026 32.1715 91.8609 31.6809C98.3906 26.8203 101.665 24.3819 101.096 16.2109C100.993 14.7553 102.249 13.4949 103.902 13.3981C105.592 13.2935 106.978 14.4077 107.078 15.8641C107.836 26.6919 102.752 30.4782 95.7194 35.7156C95.0742 36.1977 94.4019 36.696 93.7116 37.2189C91.0797 39.2121 87.7388 42.8139 85.5974 46.2734L85.6342 46.3357L85.0127 47.5276C83.8057 49.8422 83.2358 52.2882 83.3209 54.7943C83.4004 57.1635 84.0637 59.4511 85.2936 61.5988L85.8971 62.6554L85.405 63.7573C84.1054 66.6586 83.5011 69.7083 83.6075 72.828C83.6911 75.3294 84.2913 77.7824 85.274 80.11C87.4497 77.5048 90.3215 75.2679 93.8025 73.5531C98.7386 71.1147 104.486 69.9736 108.698 70.4911C114.798 64.0587 123.12 60.3608 132.334 60.0271C132.41 60.0248 132.49 60.0225 132.566 60.0202C137.871 59.8625 148.294 61.2774 152.915 67.1269C154.925 56.5606 150.906 47.8806 139.185 45.6321C141.461 36.9367 135.606 28.8342 130.159 26.0613C127.928 32.1199 124.334 35.4465 120.487 38.0732C121.889 39.8595 125.235 44.6371 125.308 49.7407C125.326 51.1856 124.028 52.3782 122.399 52.4251C122.38 52.4267 122.362 52.4267 122.343 52.4282C120.689 52.4521 119.33 51.2855 119.309 49.8268C119.261 46.2342 116.66 42.5232 115.602 41.1629C110.746 44.1711 106.249 47.4061 103.384 55.5671C102.994 56.6744 101.855 57.3965 100.61 57.4326C100.289 57.4434 99.9596 57.4095 99.6328 57.318C98.0524 56.8936 97.1672 55.4149 97.6577 54.0184C101.37 43.4506 107.752 39.5396 113.386 36.0893C118.169 33.1588 122.32 30.5982 124.618 23.9905L125.081 21.7905C125.36 20.4671 125.48 19.1391 125.435 17.8427C125.092 7.66776 115.422 -0.332504 103.883 0.0112228C92.349 0.354942 83.2366 8.91348 83.5797 19.0884C83.6673 21.6667 84.356 24.1597 85.6302 26.4973L86.3385 27.7945L85.4811 29.0257C83.5904 31.7416 82.6487 34.8551 82.7551 38.0271Z" fill="white"/>
<path d="M154.7 103.344C152.243 106.131 149.603 108.403 149.151 108.784C148.592 109.256 147.883 109.504 147.169 109.525C146.35 109.55 145.525 109.281 144.915 108.72C143.77 107.67 143.81 105.998 145.006 104.984C146.281 103.899 149.219 101.173 151.24 98.582L151.195 98.5305L152.27 96.9565C154.741 93.34 155.974 89.2122 155.833 85.0183C155.642 79.3726 152.999 74.1091 148.402 70.1558C148.197 69.9728 148.003 69.7891 147.786 69.6183L147.564 69.433C143.885 66.6678 138.369 65.1484 132.555 65.3114C127.915 65.4783 119.107 66.9608 112.257 75.0288L110.905 76.6159L108.8 75.9215C106.921 75.3064 101.926 75.5893 96.7144 78.163C93.0098 79.9886 88.6657 83.5204 86.9543 89.4945C84.261 98.8904 91.9633 104.363 94.6893 106.178C96.0142 107.06 96.6366 108.497 95.8267 109.768C95.2912 110.613 94.3192 111.098 93.3022 111.128C92.7838 111.144 92.2515 111.042 91.7635 110.802C89.4789 109.693 86.359 107.4 83.9564 104.072C83.2399 106.14 82.8599 108.295 82.9336 110.481C83.0753 114.68 84.6909 118.67 87.6077 122.014L88.4692 123.007C90.9725 125.626 94.5043 128.188 97.2491 130.168C98.5544 131.111 99.7221 131.957 100.615 132.674C108.978 139.391 107.343 147.587 105.312 150.985C104.786 151.858 103.786 152.369 102.748 152.401C102.243 152.415 101.732 152.316 101.256 152.096C99.8015 151.421 99.2414 149.835 100.001 148.547C100.378 147.889 103.405 142.082 96.5694 136.589C95.7399 135.923 94.6533 135.14 93.4422 134.266C91.3549 132.759 88.8533 130.94 86.5441 128.942C86.427 129.707 86.3549 130.473 86.3819 131.255C86.4499 133.287 87.0091 135.248 88.0417 137.083L88.7419 138.331L87.9656 139.548C86.3221 142.134 85.5073 145.053 85.6056 147.975C85.9078 156.938 94.4216 163.978 104.584 163.677C111.696 163.465 117.926 159.758 120.851 153.999L121.368 152.977L122.561 152.59C125.899 151.51 128.709 149.455 130.601 146.845C128.026 146.581 125.602 145.832 123.44 144.592C119.376 142.259 116.773 138.478 116.302 134.21C115.87 130.296 117.156 125.916 118.557 122.506C115.991 123.297 113.353 123.704 110.949 123.776C108.386 123.853 106.092 123.557 104.44 122.966C102.907 122.421 102.172 120.88 102.796 119.524C103.423 118.171 105.17 117.519 106.707 118.064C110.054 119.255 120.628 118.184 124.257 112.16C127.975 105.928 128.961 102.683 127.569 99.5517C126.231 96.5351 123.632 95.4501 121.689 95.0702C118.125 94.3797 113.993 95.527 110.936 98.0807C109.728 99.088 107.835 99.0457 106.699 97.9884C105.564 96.9288 105.62 95.2547 106.824 94.2489C110.579 91.12 115.521 89.466 120.256 89.6283C121.669 84.7107 120.407 79.9693 120.394 79.9178C120.002 78.5014 120.991 77.0688 122.6 76.7166C124.19 76.3767 125.828 77.2311 126.221 78.6475C126.293 78.9174 127.826 84.6777 126.084 90.8486C129.292 92.1912 131.795 94.5473 133.154 97.6039C136.04 104.102 132.582 110.045 126.704 119.194C126.683 119.229 121.602 127.623 122.271 133.677C122.562 136.34 124.151 138.756 126.721 140.154C143.235 149.144 162.831 123.961 154.7 103.344Z" fill="white"/>
</svg>
